<svg width="20" height="20" viewBox="0 0 20 20" fill="none" xmlns="http://www.w3.org/2000/svg">
<path d="M19.1125 7.41964C19.0548 7.24983 18.9487 7.10061 18.8072 6.99043C18.6658 6.88024 18.4951 6.81389 18.3163 6.79959L13.0872 6.38408L10.8244 1.37506C10.7523 1.21373 10.6351 1.07671 10.4869 0.980522C10.3387 0.884337 10.1658 0.833105 9.98907 0.833008C9.81238 0.832911 9.63943 0.883954 9.4911 0.979976C9.34278 1.076 9.22541 1.2129 9.15317 1.37415L6.89035 6.38408L1.6612 6.79959C1.48551 6.8135 1.31755 6.87774 1.17741 6.98462C1.03727 7.0915 0.930895 7.23648 0.870999 7.40224C0.811104 7.56799 0.80023 7.74749 0.839678 7.91926C0.879125 8.09103 0.967224 8.2478 1.09344 8.37081L4.95774 12.1379L3.59106 18.0559C3.54957 18.235 3.56287 18.4225 3.62924 18.594C3.69561 18.7655 3.81199 18.913 3.96328 19.0175C4.11457 19.1221 4.29377 19.1787 4.47765 19.1801C4.66152 19.1815 4.84157 19.1276 4.99443 19.0254L9.98877 15.6958L14.9831 19.0254C15.1393 19.1291 15.3236 19.1825 15.5111 19.1784C15.6986 19.1743 15.8803 19.1129 16.0319 19.0024C16.1834 18.8919 16.2975 18.7377 16.3587 18.5604C16.42 18.3832 16.4255 18.1914 16.3746 18.0109L14.6969 12.1406L18.8575 8.39649C19.1299 8.15067 19.2299 7.76727 19.1125 7.41964Z" fill="#F3CD03"/>
</svg>
