<svg xmlns="http://www.w3.org/2000/svg" xmlns:xlink="http://www.w3.org/1999/xlink" viewBox="0 0 50 50" fill="#1D8B27">
  <path d="M25.003906 2.3339844C24.825656 2.3339844 24.646781 2.3815625 24.488281 2.4765625L5.484375 13.896484C5.183375 14.077484 5 14.402906 5 14.753906L5 35.222656C5 35.571656 5.1805156 35.894172 5.4785156 36.076172L10.478516 39.128906C11.144516 39.535906 12 39.055391 12 38.275391L12 18.113281L25 10.173828L38 18.113281L38 38.314453C38 39.094453 38.853531 39.574922 39.519531 39.169922L44.519531 36.130859C44.818531 35.948859 45 35.625391 45 35.275391L45 14.753906C45 14.402906 44.816625 14.077484 44.515625 13.896484L25.517578 2.4765625C25.359078 2.3815625 25.182156 2.3339844 25.003906 2.3339844 z M 21.998047 17.175781C21.824234 17.175906 21.645016 17.222469 21.478516 17.324219L16.478516 20.378906C16.180516 20.560906 16 20.882469 16 21.230469L16 42.023438C16 42.374437 16.183375 42.699859 16.484375 42.880859L24.488281 47.689453C24.805281 47.880453 25.200578 47.879453 25.517578 47.689453L33.515625 42.882812C33.816625 42.701813 34 42.376391 34 42.025391L34 21.230469C34 20.882469 33.819484 20.559906 33.521484 20.378906L28.521484 17.324219C27.855484 16.917219 27 17.396734 27 18.177734L27 38.771484L25 39.994141L23 38.771484L23 18.177734C23 17.591984 22.519484 17.175406 21.998047 17.175781 z" fill="#1D8B27" />
</svg>